<svg version="1.1" xmlns="http://www.w3.org/2000/svg" viewBox="0 0 1024 1024"><path d="M938.22 366.99c-17.76-22.14-74.49-100.99-75.04-101.82-0.39-0.55-39.51-53.62-68.12-100-11.29-18.43-26.23-34.09-44.32-46.54-12.45-8.52-27.73-14.77-45.38-18.54-42.61-9.07-84.12-35.14-84.56-35.42 0 0-0.05 0-0.05-0.05-0.05 0-0.05 0-0.05-0.06-0.17-0.05-0.33-0.11-0.55-0.16a0.985 0.985 0 0 0-0.44-0.11s-0.06-0.06-0.11-0.06c-0.11 0-0.22 0.06-0.33 0.06h-0.11c-0.16 0-0.33 0-0.5 0.05h-0.11c-0.17 0.06-0.33 0.17-0.44 0.22-0.16 0.11-0.28 0.17-0.39 0.22h-0.06c0 0.06-0.05 0.06-0.05 0.06 0 0.05-0.06 0.05-0.06 0.05-19.15 15.44-60.32 25.46-104.92 25.46h-1.27c-44.55 0-85.72-10.02-104.92-25.46l-0.06-0.05s-0.05 0-0.05-0.06c-0.11-0.05-0.28-0.11-0.39-0.16-0.17-0.11-0.33-0.22-0.5-0.28h-0.11c-0.16-0.05-0.33-0.05-0.5-0.05h-0.06c-0.11 0-0.22-0.06-0.39-0.06-0.05 0-0.05 0.06-0.11 0.06-0.16 0-0.28 0.05-0.44 0.11-0.16 0.05-0.39 0.11-0.55 0.22-0.06 0.05-0.06 0.05-0.11 0.05-0.39 0.28-41.95 26.34-84.5 35.42-17.71 3.76-32.98 10.02-45.43 18.54-18.1 12.45-32.98 28.11-44.33 46.54-28.56 46.37-67.68 99.44-68.12 100-0.44 0.66-38.07 53.01-61.59 84.34v0.05c-5.37 7.14-10.02 13.17-13.28 17.21-0.33 0.44-1.55 1.88-1.22 4.59 0.61 5.37 7.08 12.06 18.98 19.81l124.07 89.76c9.63 6.97 23.02 5.64 31.04-2.88l14.72-13.5c0.28 1.55 0.5 4.37 0.22 9.63l-22.96 454.94c-0.06 0.55-0.06 1.05-0.06 1.55l0.11 5.92c0.28 12.56 10.18 22.69 22.69 23.08 2.6 0.06 5.48 0.11 8.52 0.11 4.87 0 10.24-0.11 16.1-0.28h427.65c5.92 0.16 11.29 0.28 16.16 0.28 3.1 0 5.92-0.05 8.58-0.11 12.45-0.39 22.41-10.51 22.63-23.08l0.11-5.92v-1.55l-23.02-454.94c-0.28-5.26 0-8.08 0.28-9.63l14.55 13.39c8.13 8.63 21.52 9.96 31.15 2.99l123.96-89.65c12.06-7.86 18.48-14.55 19.15-19.92 0.28-2.71-0.88-4.15-1.11-4.37zM511.34 95.89h1.27c42.72 0 81.24-8.69 103.04-22.85-7.58 42.22-51.41 74.43-103.04 74.43h-1.27c-51.63 0-95.4-32.21-102.98-74.43 21.75 14.16 60.26 22.85 102.98 22.85zM402.55 71.54c6.75 45.99 53.51 81.46 108.8 81.46h1.27c55.28 0 102.1-35.47 108.85-81.46 3.99 2.32 11.12 6.36 20.37 11.01-13.95 49.97-67.85 86-129.22 86h-1.27c-61.37 0-115.27-36.02-129.22-86 9.24-4.65 16.38-8.69 20.42-11.01z m-147.7 402.58c-6.2 6.64-16.49 7.64-23.85 2.32l-124.18-89.81c-17.49-11.4-16.54-16.22-16.71-16.22 2.99-3.71 7.08-9.08 11.84-15.38l155.78 116.43-2.88 2.66z m507.23-6.47l-9.35-8.52c-1-1-2.77-1.61-4.48-0.83-2.99 1.33-4.04 6.03-3.54 16.16l23.02 454.94v1.16l-0.11 5.92c-0.17 9.63-7.75 17.38-17.27 17.65-6.7 0.22-14.89 0.11-24.46-0.16H298.02c-9.47 0.28-17.65 0.39-24.35 0.16-9.52-0.28-17.1-8.02-17.32-17.65l-0.11-5.92c0-0.39 0-0.78 0.06-1.16l22.96-454.94c0.5-10.13-0.5-14.83-3.49-16.16-1.72-0.78-3.54-0.17-4.48 0.77l-9.41 8.63-156.61-117.1c23.68-31.65 59.54-81.57 59.99-82.18 0.39-0.55 39.68-53.79 68.34-100.38 10.96-17.76 25.35-32.82 42.78-44.82 11.84-8.19 26.45-14.11 43.38-17.71 20.92-4.49 41.5-12.89 57.33-20.53 15.05 51.8 70.83 89.1 134.25 89.1h1.27c63.42 0 119.2-37.3 134.25-89.1 15.83 7.64 36.41 16.05 57.33 20.53 16.99 3.6 31.54 9.52 43.44 17.71 17.43 12.01 31.82 27.06 42.72 44.82 28.72 46.59 67.96 99.83 68.34 100.38 0.44 0.61 36.36 50.58 60.04 82.18L762.08 467.65z m155-80.96l-124.12 89.76c-7.36 5.31-17.6 4.32-24.02-2.49l-2.71-2.49 155.83-116.43c4.7 6.25 8.74 11.56 11.73 15.22 0 0.05 1.11 4.86-16.71 16.43z" fill="#1C1B23" /><path d="M257.73 471.47l-2.88 2.66c-6.2 6.64-16.49 7.64-23.85 2.32l-124.18-89.81c-17.49-11.4-16.54-16.22-16.71-16.22 2.99-3.71 7.08-9.08 11.84-15.38l155.78 116.43zM641.83 82.55c-13.95 49.97-67.85 86-129.22 86h-1.27c-61.37 0-115.27-36.02-129.22-86 9.24-4.65 16.38-8.69 20.42-11.01 6.75 45.99 53.51 81.46 108.8 81.46h1.27c55.28 0 102.1-35.47 108.85-81.46 3.99 2.32 11.13 6.36 20.37 11.01zM917.08 386.69l-124.12 89.76c-7.36 5.31-17.6 4.32-24.02-2.49l-2.71-2.49 155.83-116.43c4.7 6.25 8.74 11.56 11.73 15.22 0 0.05 1.11 4.86-16.71 16.43z" fill="#F5F5F7" /><path d="M615.63 73.01c-7.58 42.22-51.41 74.43-103.04 74.43h-1.27c-51.63 0-95.4-32.21-102.99-74.43 21.75 14.16 60.26 22.85 102.99 22.85h1.27c42.72 0 81.24-8.69 103.04-22.85z" fill="#F5F5F7" /><path d="M744.68 474.43l23.02 454.94v1.16l-0.11 5.92c-0.17 9.63-7.75 17.38-17.27 17.65-6.7 0.22-14.89 0.11-24.46-0.17H297.99c-9.46 0.28-17.65 0.39-24.35 0.17-9.52-0.28-17.1-8.03-17.32-17.65l-0.11-5.92c0-0.39 0-0.78 0.05-1.16l22.97-454.94c0.5-10.12-0.5-14.83-3.49-16.16-1.71-0.78-3.54-0.16-4.48 0.78l-9.41 8.63-156.61-117.1c23.68-31.65 59.54-81.57 59.99-82.18 0.39-0.55 39.68-53.79 68.34-100.38 10.96-17.76 25.34-32.82 42.78-44.82 11.84-8.19 26.45-14.11 43.38-17.71 20.92-4.48 41.5-12.89 57.33-20.53 15.05 51.8 70.83 89.1 134.25 89.1h1.27c63.42 0 119.2-37.3 134.25-89.1 15.83 7.64 36.41 16.05 57.33 20.53 16.99 3.6 31.54 9.52 43.44 17.71 17.43 12.01 31.82 27.06 42.72 44.82 28.72 46.59 67.95 99.83 68.34 100.38 0.44 0.61 36.36 50.58 60.04 82.18L762.06 467.62l-9.35-8.52c-1-0.99-2.77-1.61-4.48-0.83-2.99 1.33-4.05 6.03-3.55 16.16z" fill="#603AE8" /></svg>