<?xml version="1.0" encoding="utf-8"?>
<svg xmlns="http://www.w3.org/2000/svg" height="512pt" version="1.1" viewBox="0 0 512 512" width="512pt">
<path d="M 0.00 0.00 L 512.00 0.00 L 512.00 512.00 L 0.00 512.00 L 0.00 0.00 Z" fill="transparent" opacity="1.00" stroke="transparent" stroke-width="0.25"/>
<path d="M 171.29 171.88 C 177.82 171.00 184.08 175.24 187.19 180.78 C 189.18 184.06 188.81 188.11 188.51 191.77 C 187.01 197.25 182.43 201.81 176.98 203.41 C 174.01 203.95 170.93 203.88 167.98 203.29 C 161.86 201.84 157.73 195.91 156.66 189.98 C 155.31 181.24 162.43 172.37 171.29 171.88 Z" fill="#8c361b" opacity="1.00" stroke="#8c361b" stroke-width="0.25"/>
<path d="M 324.15 174.37 C 331.14 171.29 338.99 172.40 346.40 172.33 C 346.68 173.00 347.23 174.34 347.51 175.00 C 352.25 172.49 357.67 171.30 362.96 172.70 C 369.38 175.24 374.16 182.01 373.49 189.04 C 373.42 197.18 365.95 203.94 358.04 204.33 C 353.56 204.10 349.13 202.33 346.10 198.96 C 344.14 196.67 340.71 197.59 338.29 198.49 C 333.61 200.57 330.98 205.72 331.18 210.73 C 335.07 211.32 339.05 211.54 342.96 211.09 C 345.37 209.98 347.08 207.18 349.97 207.33 C 355.23 207.55 360.49 207.38 365.76 207.36 L 365.69 206.78 C 359.91 207.23 353.95 207.88 348.25 206.48 C 354.04 206.96 359.85 206.56 365.65 206.75 C 369.17 208.45 372.86 211.72 372.69 215.97 C 372.74 243.00 372.70 270.03 372.73 297.06 C 373.05 301.78 369.23 305.83 365.05 307.38 C 361.06 308.01 356.99 307.74 352.98 307.71 C 346.80 308.08 342.36 301.68 342.51 296.00 C 342.42 275.54 342.62 255.07 342.44 234.60 C 338.78 234.55 335.09 234.32 331.48 234.97 C 331.72 260.31 331.48 285.65 331.61 310.99 C 331.82 316.85 330.63 322.78 328.02 328.03 C 324.59 334.20 318.23 339.06 311.01 339.33 C 306.30 339.10 302.04 335.38 300.66 330.99 C 300.30 313.47 300.88 295.91 300.43 278.38 C 303.18 268.90 304.56 258.90 303.01 249.08 C 302.12 245.11 300.99 241.20 300.43 237.16 C 301.40 223.87 298.87 210.16 302.83 197.21 C 306.01 186.83 314.21 178.50 324.15 174.37 Z" fill="#093e70" opacity="1.00" stroke="#093e70" stroke-width="0.25"/>
<path d="M 346.32 179.33 C 350.63 177.54 354.53 173.93 359.53 174.69 C 366.14 176.15 371.71 182.83 370.65 189.78 C 370.13 194.81 366.02 198.51 361.82 200.80 C 359.19 202.23 356.03 201.70 353.39 200.61 C 350.37 199.47 348.47 196.71 345.87 194.94 C 336.31 192.46 326.83 201.96 328.56 211.44 C 328.82 213.28 330.89 213.33 332.32 213.71 C 335.80 214.31 339.39 214.41 342.89 213.90 C 346.30 213.51 348.35 209.76 351.96 210.07 C 356.92 209.95 362.29 208.74 366.93 211.12 C 369.69 212.65 369.93 216.16 370.03 218.96 C 370.23 229.97 369.73 241.00 370.59 252.00 C 369.64 265.99 370.27 280.03 370.04 294.05 C 369.98 297.42 369.40 301.31 366.61 303.56 C 362.00 306.23 356.29 306.02 351.29 304.69 C 348.09 303.86 346.42 300.51 345.52 297.60 C 344.68 293.12 345.25 288.53 345.17 284.00 C 345.14 269.67 345.06 255.33 345.28 240.99 C 345.36 238.12 345.08 235.26 344.59 232.44 C 339.89 231.75 335.04 231.34 330.34 232.27 C 328.72 233.19 329.02 235.35 328.82 236.92 C 328.83 261.96 328.90 287.00 328.78 312.04 C 328.84 318.23 327.16 324.51 323.58 329.59 C 320.63 333.49 315.99 336.23 311.12 336.66 C 306.89 335.47 302.47 331.87 302.98 327.02 C 303.00 311.35 303.14 295.67 302.93 280.00 C 302.76 271.85 306.50 264.16 305.99 255.99 C 305.82 249.21 302.97 242.81 303.13 236.01 C 303.22 226.09 302.78 216.15 303.45 206.25 C 304.66 197.61 308.63 189.08 315.29 183.30 C 322.90 177.14 332.93 173.45 342.77 175.10 C 344.61 175.71 345.22 177.90 346.32 179.33 Z" fill="#0553a5" opacity="1.00" stroke="#0553a5" stroke-width="0.25"/>
<path d="M 167.43 175.38 C 171.14 173.99 175.51 174.27 179.08 175.95 C 184.50 179.18 187.75 186.37 185.44 192.46 C 182.93 199.45 174.41 203.51 167.48 200.45 C 163.09 197.87 158.99 193.44 159.31 188.00 C 158.97 182.54 162.63 177.63 167.43 175.38 Z" fill="#fb5220" opacity="1.00" stroke="#fb5220" stroke-width="0.25"/>
<path d="M 221.37 212.38 C 235.10 204.24 252.28 202.82 267.45 207.44 C 282.30 211.62 293.81 223.58 300.43 237.16 C 300.99 241.20 302.12 245.11 303.01 249.08 C 304.56 258.90 303.18 268.90 300.43 278.38 C 297.61 282.56 295.18 287.02 291.92 290.88 C 283.13 301.16 270.50 308.06 257.03 309.56 C 247.65 310.00 237.83 310.18 229.17 306.01 C 212.07 299.33 199.26 283.13 196.47 265.03 C 196.08 257.68 195.69 250.09 197.94 242.98 C 201.44 230.26 210.28 219.36 221.37 212.38 Z" fill="#8d361b" opacity="1.00" stroke="#8d361b" stroke-width="0.25"/>
<path d="M 73.75 207.02 C 86.00 204.23 98.85 205.36 111.02 208.04 C 122.11 210.55 132.88 216.05 139.75 225.35 C 144.59 231.42 146.41 239.36 146.38 246.99 C 146.32 263.35 146.38 279.70 146.35 296.06 C 146.37 301.98 141.23 308.17 135.02 307.77 C 131.03 307.73 126.95 308.13 123.03 307.26 C 119.27 305.74 117.62 301.80 116.48 298.21 C 110.22 302.17 103.82 306.16 96.51 307.87 C 83.07 311.64 68.19 309.00 56.50 301.49 C 44.61 293.32 35.78 280.40 33.61 266.03 C 33.11 260.06 32.97 253.99 33.87 248.05 C 36.09 237.58 41.36 227.58 49.39 220.38 C 55.81 213.43 64.77 209.48 73.75 207.02 Z" fill="#8d351a" opacity="1.00" stroke="#8d351a" stroke-width="0.25"/>
<path d="M 162.85 207.69 C 165.49 205.69 168.94 206.51 172.00 206.34 C 175.09 206.50 178.50 205.71 181.23 207.59 C 175.10 207.49 168.97 207.43 162.85 207.69 Z" fill="#c49585" opacity="1.00" stroke="#c49585" stroke-width="0.25"/>
<path d="M 384.65 229.31 C 377.40 221.79 383.83 208.50 393.21 206.43 C 397.08 205.61 401.47 205.55 405.12 207.00 C 412.54 215.24 418.89 224.44 426.17 232.80 C 428.21 232.27 429.05 229.84 430.46 228.42 C 436.37 221.21 441.87 213.61 448.16 206.73 C 452.03 205.98 456.10 206.16 460.02 206.51 C 466.80 208.25 471.69 215.05 471.42 222.02 C 471.88 225.14 469.61 227.54 467.84 229.78 C 460.25 238.84 452.91 248.10 445.20 257.05 C 450.82 265.81 457.81 273.61 464.07 281.92 C 466.64 285.65 471.28 288.92 470.49 294.00 C 470.57 299.32 467.23 304.27 462.55 306.64 C 458.13 309.16 452.84 308.49 447.99 308.22 C 445.41 307.20 444.10 304.56 442.41 302.54 C 436.49 294.98 430.44 287.51 424.74 279.78 C 423.22 280.50 421.99 281.65 421.01 283.01 C 416.39 289.03 411.48 294.82 406.79 300.78 C 404.63 303.37 402.53 306.07 399.86 308.16 C 393.51 309.14 385.95 308.81 381.46 303.54 C 378.01 299.30 376.03 292.41 379.82 287.77 C 388.69 277.37 396.86 266.40 405.75 256.01 C 398.80 247.04 391.75 238.15 384.65 229.31 Z" fill="#562839" opacity="1.00" stroke="#562839" stroke-width="0.25"/>
<path d="M 67.12 212.08 C 82.60 205.76 99.99 207.75 115.65 212.29 C 129.61 216.18 142.48 227.90 143.62 242.98 C 143.81 260.32 143.69 277.67 143.66 295.02 C 143.85 299.87 140.34 305.45 135.03 305.34 C 131.24 305.47 127.18 305.93 123.61 304.39 C 119.96 302.40 119.64 297.94 119.27 294.28 C 114.99 294.12 112.25 297.91 108.78 299.78 C 98.34 306.48 85.30 308.37 73.25 305.73 C 59.93 302.49 48.13 293.42 41.68 281.31 C 35.33 269.76 33.92 255.63 38.01 243.09 C 42.66 229.22 53.38 217.36 67.12 212.08 Z" fill="#fc5120" opacity="1.00" stroke="#fc5120" stroke-width="0.25"/>
<path d="M 156.60 217.95 C 156.29 213.62 159.22 209.73 162.85 207.69 C 168.97 207.43 175.10 207.49 181.23 207.59 C 184.08 208.71 186.29 211.17 187.35 214.02 C 187.77 216.65 187.62 219.34 187.64 222.00 C 187.56 247.01 187.61 272.03 187.63 297.03 C 187.87 301.33 184.81 305.05 181.30 307.14 C 175.79 308.79 169.84 308.58 164.25 307.46 C 159.38 306.11 156.45 300.91 156.60 296.03 C 156.64 270.01 156.62 243.98 156.60 217.95 Z" fill="#8b3a1f" opacity="1.00" stroke="#8b3a1f" stroke-width="0.25"/>
<path d="M 239.36 208.43 C 252.16 206.10 265.93 207.90 277.08 214.87 C 291.64 223.21 301.06 239.45 301.80 256.13 C 302.34 276.85 288.18 296.76 268.89 303.92 C 256.85 308.45 243.17 308.42 231.13 303.89 C 217.50 298.24 205.64 287.06 201.23 272.74 C 192.88 250.09 205.19 222.96 226.68 212.72 C 230.71 210.79 235.00 209.41 239.36 208.43 Z" fill="#fc5120" opacity="1.00" stroke="#fc5120" stroke-width="0.25"/>
<path d="M 168.38 209.46 C 173.20 209.44 179.13 208.30 182.86 212.16 C 185.29 214.40 185.00 217.98 185.20 220.99 C 185.29 245.00 184.99 269.01 185.22 293.01 C 185.23 296.75 184.97 301.21 181.67 303.62 C 177.76 306.14 172.82 305.78 168.38 305.51 C 163.54 305.32 158.97 301.02 159.29 296.02 C 159.23 273.35 159.24 250.67 159.32 228.00 C 159.37 223.80 158.92 219.57 159.56 215.40 C 160.51 211.51 164.60 209.43 168.38 209.46 Z" fill="#fc5120" opacity="1.00" stroke="#fc5120" stroke-width="0.25"/>
<path d="M 385.73 226.26 C 381.69 219.34 387.37 209.92 394.98 208.84 C 397.93 208.56 401.53 207.83 403.91 210.12 C 408.33 214.09 411.41 219.27 415.26 223.76 C 419.00 228.11 422.32 232.80 426.11 237.10 C 430.36 234.03 432.90 229.29 436.40 225.47 C 440.90 220.25 444.43 214.13 449.60 209.53 C 456.03 206.95 464.97 209.56 467.65 216.37 C 468.80 219.93 469.19 224.49 466.31 227.36 C 460.32 234.06 454.93 241.24 449.20 248.15 C 446.98 250.91 444.04 253.16 442.45 256.38 C 441.83 257.84 442.99 259.12 443.72 260.27 C 451.26 270.35 459.42 279.96 467.03 289.98 C 470.39 297.04 463.35 305.78 455.93 305.81 C 452.78 305.75 448.64 306.48 446.54 303.52 C 440.30 295.41 433.68 287.58 427.79 279.19 C 426.70 277.81 425.55 275.57 423.42 276.33 C 422.27 277.20 421.33 278.30 420.42 279.40 C 413.85 287.80 406.86 295.87 400.43 304.37 C 398.80 306.68 395.48 305.89 393.06 305.95 C 386.80 305.83 380.14 300.66 380.54 294.00 C 380.43 291.47 382.18 289.48 383.63 287.61 C 389.44 280.45 395.13 273.19 400.95 266.03 C 403.44 262.85 406.58 260.10 408.42 256.46 C 409.04 255.43 407.81 254.47 407.41 253.60 C 400.23 244.46 392.70 235.57 385.73 226.26 Z" fill="#b1616e" opacity="1.00" stroke="#b1616e" stroke-width="0.25"/>
<path d="M 86.42 229.49 C 99.64 228.02 113.67 236.56 117.32 249.57 C 120.66 261.21 115.51 274.84 104.99 280.98 C 94.06 287.63 78.74 286.49 69.34 277.62 C 62.96 271.54 59.23 262.40 60.57 253.57 C 62.48 240.97 73.68 230.44 86.42 229.49 Z" fill="#903517" opacity="1.00" stroke="#903517" stroke-width="0.25"/>
<path d="M 245.36 231.45 C 252.70 230.28 260.65 231.84 266.63 236.38 C 272.65 241.43 277.33 248.90 276.86 257.01 C 277.42 271.25 264.11 283.94 249.99 283.21 C 239.11 283.63 228.75 276.26 224.98 266.16 C 219.09 251.59 229.65 233.26 245.36 231.45 Z" fill="#8d351a" opacity="1.00" stroke="#8d351a" stroke-width="0.25"/>
<path d="M 83.40 232.69 C 89.09 231.97 95.23 231.77 100.47 234.46 C 109.39 238.57 116.28 247.94 115.62 258.01 C 115.49 271.99 101.65 283.58 87.95 282.50 C 78.20 282.16 69.19 275.92 65.05 267.15 C 63.10 263.10 63.07 258.45 63.43 254.07 C 64.80 243.70 73.34 235.04 83.40 232.69 Z" fill="#fefefd" opacity="1.00" stroke="#fefefd" stroke-width="0.25"/>
<path d="M 242.47 234.75 C 254.85 230.25 269.39 238.11 273.26 250.47 C 276.48 259.36 272.26 269.37 265.40 275.32 C 259.44 279.86 251.38 281.67 244.08 279.84 C 237.35 278.42 231.95 273.25 228.59 267.45 C 225.84 262.93 225.98 257.41 226.59 252.35 C 228.27 244.23 234.76 237.50 242.47 234.75 Z" fill="#fefefe" opacity="1.00" stroke="#fefefe" stroke-width="0.25"/>
</svg>