<svg version="1.1" xmlns="http://www.w3.org/2000/svg" viewBox="0 0 1024 1024"><path d="M918.77 598.25c-6.85-53.21-23.99-120.45-51.01-200.81-0.07-0.39-0.2-0.71-0.39-1.04-19.59-58.06-44.29-122.97-74.16-194.6-2.65-6.34-4.79-11.31-5.82-13.97-0.26-0.78-0.45-1.29-0.58-1.62-3.88-11.64-4.85-21.92-4.91-21.92-0.26-10.21-3.04-24.31-5.76-36.07-2.71-11.77-5.43-21.14-5.69-21.92-0.45-1.49-1.81-2.46-3.36-2.33-88.25 7.31-174.05 11.25-255.12 11.77-81.01-0.52-166.87-4.46-255.06-11.77-1.55-0.13-2.97 0.84-3.36 2.33-0.45 1.55-10.93 37.63-11.45 57.8-0.06 0.13-1.03 10.41-4.91 22.11-0.52 1.42-2.97 7.37-6.4 15.58-29.87 71.64-54.57 136.48-74.16 194.6-0.2 0.33-0.32 0.71-0.39 1.1-27.03 80.3-44.16 147.54-51.01 200.68-0.19 1.16-17.07 113.4-40.41 208.38-0.26 1.1 0 2.2 0.78 3.04l47.71 50.37c0.45 0.52 1.1 0.84 1.75 0.97l329.6 59.03c0.2 0.06 0.39 0.06 0.52 0.06 1.49 0 2.84-1.04 3.17-2.52l63.62-275.81 63.68 275.81a3.172 3.172 0 0 0 3.1 2.52c0.19 0 0.39 0 0.58-0.06l329.6-59.03c0.65-0.13 1.29-0.45 1.75-0.97l47.71-50.37c0.71-0.84 1.04-1.94 0.78-3.04-23.33-94.96-40.2-207.2-40.4-208.3zM782.55 193c1.1 2.71 2.71 6.53 4.65 11.31 29.22 69.89 53.47 133.38 72.8 190.34-88.9-1.55-161.5-158.02-173.4-185.17 36.34-3.54 71.05-8.78 95.95-16.48z m-7.05-28.31c0 0.45 0.97 10.41 4.79 22.24-57.61 17.65-171.39 22.11-230.68 23.21l-2.39-32.2c123.81-4.98 209.86-19.46 227.45-22.63 0.44 3.37 0.7 6.6 0.83 9.38zM553.29 453.11c-5.17-51.34-13.39-172.24-17.59-236.18v-0.06l-0.39-6.47c-1.03-15.58-1.75-26.96-2.07-31.94 2.52-0.06 5.04-0.13 7.5-0.26l2.39 31.94v0.13l0.52 6.53v0.13l17.59 236.18h-7.95z m8.47 6.46l1.23 16.81c-1.23 3.04-3.1 6.08-3.69 6.47 0 0-1.42-0.84-3.04-6.85-0.65-2.26-1.42-8.08-2.33-16.42h7.83zM259.05 110.64c87.41 7.18 172.56 11.06 252.92 11.57h0.06c80.37-0.52 165.45-4.4 252.92-11.57 1.75 6.34 6.27 23.15 8.8 38.27-18.56 3.36-119.22 20.37-261.78 23.73-142.56-3.36-243.16-20.37-261.72-23.73 2.53-15.06 7.05-31.94 8.8-38.27z m214.91 372.27c0-2.07 0-4.2 0.06-6.53 0.45-13.57 0.84-179.41 0.97-259.52v-6.72c0.06-15.26 0.06-26.7 0.06-32.26l8.92 0.39v32.07l-0.06 6.47-0.33 266.44-9.62-0.34z m9.5 6.79c-1.49 7.76-4.46 15.65-5.95 16.36 0 0-0.84-0.32-2.13-2.71-0.26-1.49-0.97-6.4-1.29-13.96l9.37 0.31zM248.51 164.49c0.06-2.78 0.39-5.88 0.78-9.18 17.26 3.11 99.89 17.01 219.3 22.31 0 5.24 0 16.74-0.06 32.46-60.65-1.29-169.07-6.08-224.8-23.15 3.75-11.83 4.72-21.79 4.78-22.44z m-11.77 39.83c2.07-4.85 3.62-8.6 4.72-11.31 24.89 7.7 59.61 12.93 95.94 16.49-11.9 27.15-84.44 183.55-173.4 185.17 19.34-56.97 43.58-120.46 72.74-190.35z m205.99 708.73L117.27 854.8 71.5 806.44c23.21-94.98 39.95-206.18 40.15-207.34 6.72-52.43 23.6-118.64 50.17-197.84 0.26 0 0.58 0.07 0.91 0.07 97.05 0 172.04-168.94 181.48-191.18 45 4.14 91.62 5.75 124.33 6.4-0.13 79.78-0.52 246.33-0.97 259.65-0.06 3.55-0.06 6.72 0 9.63v0.2c0.2 11.77 1.49 18.68 1.55 19.01 0.06 0.32 0.13 0.65 0.32 0.91 2.26 4.39 4.92 6.59 7.89 6.59 0.32 0 0.65-0.06 0.91-0.06 7.11-1.1 10.54-15.84 11.77-22.69l0.39-272.9c7.24 0.13 12.99 0.13 16.81 0.13h1.29v409.06c0 0.19 0 0.45 0.07 0.71l0.13 0.51-65.97 285.75z m61.94-702.52c-3.62-0.06-8.47-0.06-14.29-0.13l0.06-31.94c7.05 0.26 14.22 0.45 21.53 0.65h0.06c4.98-0.13 9.89-0.26 14.74-0.39 0.32 5.04 1.04 16.36 2 31.75-8.99 0.06-14.81 0.06-16.49 0.06h-7.61zM906.75 854.8l-325.53 58.25-65.88-285.7 0.13-0.58c0.19-0.91 0-1.81-0.52-2.52V216.99c2.97 0 7.95 0 14.29-0.06 5.17 78.88 16.42 244.71 20.82 260.75 1.29 4.91 3.62 11.38 8.73 11.57h0.26c5.56 0 8.98-7.89 10.28-11.25 0.13-0.45 0.19-0.9 0.19-1.36l-19.4-259.97c32.91-0.58 82.17-2.13 129.69-6.53 9.44 22.3 84.37 191.18 181.48 191.18 0.26 0 0.58-0.07 0.9-0.07 26.57 79.2 43.38 145.41 50.17 197.91 0.19 1.1 16.94 112.3 40.08 207.28l-45.69 48.36z" fill="#1D1D1F" /><path d="M562.98 476.38c-1.23 3.04-3.1 6.08-3.69 6.47 0 0-1.42-0.84-3.04-6.85-0.65-2.26-1.42-8.08-2.33-16.42h7.82l1.24 16.8zM483.46 489.7c-1.49 7.76-4.46 15.65-5.95 16.36 0 0-0.84-0.32-2.13-2.71-0.26-1.49-0.97-6.4-1.29-13.96l9.37 0.31zM561.24 453.11h-7.95c-5.17-51.34-13.39-172.24-17.59-236.18v-0.06l-0.39-6.47c-1.03-15.58-1.75-26.96-2.07-31.94 2.52-0.06 5.04-0.13 7.5-0.26l2.39 31.94v0.13l0.52 6.53v0.13l17.59 236.18zM483.98 178.27v32.07l-0.06 6.47-0.33 266.44-9.63-0.32c0-2.07 0-4.2 0.06-6.53 0.45-13.57 0.84-179.41 0.97-259.52v-6.72c0.06-15.26 0.06-26.7 0.06-32.26 2.98 0.11 5.95 0.24 8.93 0.37zM773.76 148.91c-18.56 3.36-119.22 20.37-261.78 23.73-142.56-3.36-243.16-20.37-261.72-23.73 2.52-15.06 7.05-31.94 8.79-38.27 87.41 7.18 172.56 11.06 252.92 11.57h0.06c80.37-0.52 165.45-4.4 252.92-11.57 1.76 6.33 6.28 23.14 8.81 38.27z" fill="#F5F5F7" /><path d="M780.28 186.93c-57.61 17.65-171.39 22.11-230.68 23.21l-2.39-32.2c123.81-4.98 209.86-19.46 227.45-22.63 0.45 3.37 0.71 6.6 0.84 9.38 0 0.45 0.97 10.41 4.78 22.24zM528.78 210.46c-8.99 0.06-14.81 0.06-16.49 0.06h-7.63c-3.62-0.06-8.47-0.06-14.29-0.13l0.06-31.94c7.05 0.26 14.22 0.45 21.53 0.65h0.06c4.98-0.13 9.89-0.26 14.74-0.39 0.34 5.05 1.05 16.37 2.02 31.75zM468.59 177.62c0 5.24 0 16.74-0.06 32.46-60.65-1.29-169.07-6.08-224.8-23.15 3.75-11.83 4.72-21.79 4.79-22.43 0.06-2.78 0.39-5.88 0.78-9.18 17.25 3.1 99.87 17 219.29 22.3zM860 394.66c-88.9-1.55-161.5-158.02-173.4-185.17 36.34-3.56 71.06-8.79 95.95-16.49 1.1 2.71 2.71 6.53 4.65 11.31 29.22 69.9 53.47 133.39 72.8 190.35zM337.41 209.49c-11.9 27.15-84.44 183.55-173.4 185.17 19.33-56.96 43.57-120.45 72.73-190.34 2.07-4.85 3.62-8.6 4.72-11.31 24.89 7.69 59.61 12.93 95.95 16.48z" fill="#603AE8" /><path d="M952.45 806.44l-45.71 48.36-325.53 58.25-65.88-285.7 0.13-0.58c0.19-0.91 0-1.81-0.52-2.52V216.99c2.97 0 7.95 0 14.29-0.06 5.17 78.88 16.42 244.71 20.82 260.75 1.29 4.91 3.62 11.38 8.73 11.57h0.26c5.56 0 8.98-7.89 10.28-11.25 0.13-0.45 0.19-0.9 0.19-1.36l-19.4-259.97c32.91-0.58 82.17-2.13 129.69-6.53 9.44 22.3 84.37 191.18 181.48 191.18 0.26 0 0.58-0.07 0.9-0.07 26.57 79.2 43.38 145.41 50.17 197.91 0.21 1.1 16.96 112.3 40.1 207.28zM508.68 627.28l-65.95 285.77-325.46-58.25-45.77-48.36c23.21-94.98 39.95-206.18 40.15-207.34 6.72-52.43 23.6-118.64 50.17-197.84 0.26 0 0.58 0.07 0.91 0.07 97.05 0 172.04-168.94 181.48-191.18 45 4.14 91.62 5.75 124.33 6.4-0.13 79.78-0.52 246.33-0.97 259.65-0.06 3.55-0.06 6.72 0 9.63v0.2c0.2 11.77 1.49 18.68 1.55 19.01 0.06 0.32 0.13 0.65 0.32 0.91 2.26 4.39 4.92 6.59 7.89 6.59 0.32 0 0.65-0.06 0.91-0.06 7.11-1.1 10.54-15.84 11.77-22.69l0.39-272.9c7.24 0.13 12.99 0.13 16.81 0.13h1.29v409.06c0 0.19 0 0.45 0.07 0.71l0.11 0.49z" fill="#603AE8" /></svg>