<svg version="1.1" xmlns="http://www.w3.org/2000/svg" viewBox="0 0 1024 1024"><path d="M886.6 483.98c-164.74-65.18-90.43-340.48-89.68-343.29 0.44-1.5-0.38-3.12-1.88-3.75L607.93 64.07c-0.81-0.31-1.75-0.25-2.5 0.13-27.25 13.81-91.49 13.94-92.81 13.94h-2c-7.31 0-66.31-0.81-92.06-13.94-0.81-0.38-1.75-0.44-2.56-0.13l-187.05 72.87c-1.5 0.63-2.31 2.25-1.88 3.75 0.75 2.81 75.06 278.11-89.74 343.29-1.19 0.44-2 1.69-1.94 3l19.94 464.16c0.31 2.37 1.25 9 78.56 9 10.75 0 23.06-0.13 37.06-0.44h482.03c13.94 0.31 26.25 0.44 37 0.44 77.37 0 78.31-6.62 78.68-9.25l19.94-463.91c0.06-1.32-0.75-2.56-2-3zM417.01 70.38c29.31 14 91.74 14 94.37 14h1.19c2.69 0 65.12 0 94.43-14l2 0.81c-3.5 20.44-29.87 165.42-96.99 291.11-67.12-125.68-93.5-270.67-97-291.11l2-0.81z m74.06 883.07H270.89c-87.18 1.81-105.74-2.81-109.43-4.38l-19.75-460.15c158.36-64.99 99.49-317.92 92.05-347.1l175.3-68.31c3.94 22.75 26.87 145.11 82 261.17v618.77z m35.55 0h-29.31v-605.9c3.69 7.31 7.44 14.56 11.31 21.81 0.56 1 1.68 1.62 2.75 1.62h1.19c1.12 0 2.19-0.62 2.75-1.62 3.94-7.25 7.69-14.5 11.31-21.81v605.9z m335.85-4.38c-3.62 1.5-22.06 6.19-109.43 4.38H532.87V334.67c55.12-116.05 78.12-238.42 82.06-261.17l175.24 68.31c-7.38 29.18-66.25 282.11 92.06 347.1l-19.76 460.16z" fill="#1D1D1F" /><path d="M608.99 71.19c-3.5 20.44-29.87 165.42-96.99 291.11-67.12-125.68-93.5-270.67-97-291.11l2-0.81c29.31 14 91.74 14 94.37 14h1.19c2.69 0 65.12 0 94.43-14l2 0.81z" fill="#F5F5F7" /><path d="M526.62 347.55v605.9h-29.31v-605.9c3.69 7.31 7.44 14.56 11.31 21.81 0.56 1 1.68 1.62 2.75 1.62h1.19c1.12 0 2.19-0.62 2.75-1.62 3.94-7.25 7.69-14.5 11.31-21.81zM790.17 141.81l-175.24-68.3c-3.94 22.75-26.94 145.11-82.06 261.17v618.77h220.17c87.37 1.81 105.81-2.87 109.43-4.38l19.75-460.15c-158.3-65-99.43-317.92-92.05-347.11zM636.43 538.6l16.88-2.13-14.75-8.44c-1.19-0.62-1.81-2-1.5-3.31a3.124 3.124 0 0 1 2.62-2.5l16.88-2.12-14.75-8.38c-1.19-0.69-1.75-2-1.5-3.31a3.124 3.124 0 0 1 2.62-2.5l16.88-2.12-14.75-8.37c-1.19-0.69-1.81-2-1.5-3.31 0.25-1.31 1.31-2.37 2.69-2.5l16.81-2.12-14.75-8.37c-1.19-0.69-1.81-2-1.5-3.31 0.25-1.31 1.31-2.37 2.69-2.5l16.75-2.12-14.69-8.31c-1.19-0.69-1.81-2-1.56-3.38 0.31-1.31 1.38-2.31 2.69-2.5l16.81-2.06-14.69-8.38c-1.19-0.69-1.81-2-1.56-3.37 0.31-1.32 1.38-2.31 2.69-2.44l16.81-2.12-14.69-8.38c-1.19-0.69-1.81-2-1.56-3.31 0.31-1.31 1.38-2.31 2.69-2.5l16.81-2.13-14.69-8.37c-1.19-0.69-1.81-2-1.56-3.31s1.38-2.31 2.69-2.5l16.81-2.06-14.75-8.38c-1.13-0.69-1.75-2-1.5-3.38 0.25-1.31 1.38-2.31 2.69-2.5l16.81-2.06-14.75-8.37c-1.13-0.69-1.75-2-1.5-3.31s1.31-2.31 2.69-2.5l26.12-3.25c1.69-0.19 3.25 1 3.5 2.69 0.19 1.75-1 3.31-2.75 3.5l-16.75 2.12 14.69 8.31c1.19 0.69 1.81 2.06 1.5 3.38-0.25 1.31-1.31 2.31-2.62 2.44l-16.81 2.12 14.68 8.37c1.19 0.69 1.81 2 1.56 3.31-0.31 1.31-1.37 2.31-2.69 2.5l-16.81 2.12 14.68 8.37c1.19 0.63 1.81 2 1.56 3.31-0.31 1.31-1.37 2.31-2.69 2.5l-16.81 2.06 14.68 8.37c1.19 0.69 1.81 2.06 1.56 3.38s-1.37 2.31-2.69 2.5l-16.81 2.06 14.75 8.38c1.13 0.69 1.75 2 1.5 3.31a3.052 3.052 0 0 1-2.69 2.5l-16.81 2.13 14.75 8.37c1.13 0.69 1.75 2 1.5 3.31-0.25 1.32-1.37 2.31-2.69 2.5l-16.81 2.06 14.75 8.44c1.13 0.63 1.75 2 1.5 3.31s-1.31 2.31-2.69 2.5l-16.81 2.06 14.75 8.43c1.19 0.63 1.75 2 1.5 3.31s-1.32 2.31-2.69 2.5l-16.81 2.13 14.75 8.37c1.13 0.62 1.75 2 1.5 3.31s-1.31 2.31-2.69 2.5l-16.81 2.13 14.75 8.44c1.13 0.62 1.75 2 1.5 3.31s-1.31 2.31-2.69 2.5l-26.12 3.31h-0.44c-1.5 0-2.87-1.13-3.06-2.75-0.24-1.68 1.01-3.24 2.7-3.49z m168.24 337.41c0 13.31-10.81 24.12-24.12 24.12H617.49c-13.31 0-24.13-10.81-24.13-24.12V677.4c0-13.31 10.81-24.13 24.13-24.13h163.05c13.31 0 24.12 10.81 24.12 24.13v198.61zM409.07 73.51l-175.3 68.31c7.44 29.18 66.31 282.11-92.05 347.1l19.75 460.15c3.69 1.56 22.25 6.19 109.43 4.38h220.17V334.67c-55.13-116.05-78.06-238.42-82-261.16z m21.5 802.5c0 13.31-10.81 24.12-24.12 24.12H243.46c-13.31 0-24.12-10.81-24.12-24.12V677.4c0-13.31 10.81-24.13 24.12-24.13h162.99c13.31 0 24.12 10.81 24.12 24.13v198.61z m0-336.41c0 13.31-10.81 24.12-24.12 24.12H274.58c-13.31 0-24.12-10.81-24.12-24.12V377.48c0-13.25 10.81-24.06 24.12-24.06h131.87c13.31 0 24.12 10.81 24.12 24.06V539.6z" fill="#603AE8" /><path d="M499.5 428.31c0 6.95 5.65 12.6 12.6 12.6 6.95 0 12.6-5.65 12.6-12.6 0-6.95-5.65-12.6-12.6-12.6-6.94 0-12.6 5.65-12.6 12.6z m18.96 0c0 3.5-2.85 6.35-6.35 6.35-3.5 0-6.35-2.85-6.35-6.35 0-3.5 2.85-6.35 6.35-6.35 3.5 0 6.35 2.85 6.35 6.35zM512.11 504.25c-6.95 0-12.6 5.65-12.6 12.6 0 6.95 5.65 12.6 12.6 12.6 6.95 0 12.6-5.65 12.6-12.6-0.01-6.95-5.66-12.6-12.6-12.6z m0 18.95c-3.5 0-6.35-2.85-6.35-6.35s2.85-6.35 6.35-6.35c3.5 0 6.35 2.84 6.35 6.35s-2.85 6.35-6.35 6.35zM512.11 592.78c-6.95 0-12.6 5.65-12.6 12.6 0 6.95 5.65 12.6 12.6 12.6 6.95 0 12.6-5.66 12.6-12.6-0.01-6.95-5.66-12.6-12.6-12.6z m0 18.95c-3.5 0-6.35-2.85-6.35-6.35 0-3.5 2.85-6.35 6.35-6.35 3.5 0 6.35 2.85 6.35 6.35 0 3.5-2.85 6.35-6.35 6.35zM512.11 681.32c-6.95 0-12.6 5.65-12.6 12.6 0 6.95 5.65 12.6 12.6 12.6 6.95 0 12.6-5.65 12.6-12.6-0.01-6.95-5.66-12.6-12.6-12.6z m0 18.95c-3.5 0-6.35-2.85-6.35-6.35 0-3.5 2.85-6.35 6.35-6.35 3.5 0 6.35 2.85 6.35 6.35 0 3.5-2.85 6.35-6.35 6.35zM512.11 769.85c-6.95 0-12.6 5.65-12.6 12.6 0 6.95 5.65 12.6 12.6 12.6 6.95 0 12.6-5.65 12.6-12.6-0.01-6.95-5.66-12.6-12.6-12.6z m0 18.95c-3.5 0-6.35-2.85-6.35-6.35s2.85-6.35 6.35-6.35c3.5 0 6.35 2.84 6.35 6.35s-2.85 6.35-6.35 6.35zM512.11 858.38c-6.95 0-12.6 5.65-12.6 12.6 0 6.95 5.65 12.6 12.6 12.6 6.95 0 12.6-5.66 12.6-12.6-0.01-6.94-5.66-12.6-12.6-12.6z m0 18.96c-3.5 0-6.35-2.85-6.35-6.35s2.85-6.35 6.35-6.35c3.5 0 6.35 2.85 6.35 6.35s-2.85 6.35-6.35 6.35zM406.45 353.42H274.58c-13.31 0-24.12 10.81-24.12 24.06V539.6c0 13.31 10.81 24.12 24.12 24.12h131.87c13.31 0 24.12-10.81 24.12-24.12V377.48c0-13.25-10.81-24.06-24.12-24.06z m17.87 186.18c0 9.87-8 17.87-17.87 17.87H274.58c-9.87 0-17.87-8-17.87-17.87V411.73c8.93 16.62 26.5 28 46.68 28h74.31c20.19 0 37.75-11.37 46.62-28V539.6z m0-152.8c0 25.75-20.87 46.68-46.62 46.68h-74.31c-25.75 0-46.68-20.93-46.68-46.68v-9.31c0-9.81 8-17.81 17.87-17.81h131.87c9.87 0 17.87 8 17.87 17.81v9.31z" fill="#1D1D1F" /><path d="M424.32 411.73V539.6c0 9.87-8 17.87-17.87 17.87H274.58c-9.87 0-17.87-8-17.87-17.87V411.73c8.93 16.62 26.5 28 46.68 28h74.31c20.18 0 37.74-11.37 46.62-28z" fill="#603AE8" /><path d="M424.32 377.48v9.31c0 25.75-20.87 46.68-46.62 46.68h-74.31c-25.75 0-46.68-20.93-46.68-46.68v-9.31c0-9.81 8-17.81 17.87-17.81h131.87c9.87 0 17.87 8 17.87 17.81z" fill="#603AE8" /><path d="M406.45 653.28H243.46c-13.31 0-24.12 10.81-24.12 24.13v198.61c0 13.31 10.81 24.12 24.12 24.12h162.99c13.31 0 24.12-10.81 24.12-24.12V677.4c0-13.31-10.81-24.12-24.12-24.12z m17.87 222.73c0 9.87-8 17.87-17.87 17.87H243.46c-9.87 0-17.87-8-17.87-17.87V719.02c10 20.63 31.12 34.87 55.56 34.87h87.62c24.44 0 45.56-14.25 55.56-34.87v156.99z m0-183.92c0 30.69-24.87 55.56-55.56 55.56h-87.62c-30.62 0-55.56-24.87-55.56-55.56V677.4c0-9.87 8-17.88 17.87-17.88h162.99c9.87 0 17.87 8 17.87 17.88v14.69z" fill="#1D1D1F" /><path d="M424.32 719.02v156.99c0 9.87-8 17.87-17.87 17.87H243.46c-9.87 0-17.87-8-17.87-17.87V719.02c10 20.63 31.12 34.87 55.56 34.87h87.62c24.43 0.01 45.55-14.24 55.55-34.87z" fill="#603AE8" /><path d="M424.32 677.4v14.68c0 30.69-24.87 55.56-55.56 55.56h-87.62c-30.62 0-55.56-24.87-55.56-55.56V677.4c0-9.87 8-17.88 17.87-17.88h162.99c9.88 0.01 17.88 8.01 17.88 17.88z" fill="#603AE8" /><path d="M780.54 653.28H617.49c-13.31 0-24.13 10.81-24.13 24.13v198.61c0 13.31 10.81 24.12 24.13 24.12h163.05c13.31 0 24.12-10.81 24.12-24.12V677.4c0.01-13.31-10.81-24.12-24.12-24.12z m17.88 222.73c0 9.87-8 17.87-17.87 17.87H617.49c-9.87 0-17.88-8-17.88-17.87V719.02c10.06 20.63 31.13 34.87 55.56 34.87h87.68c24.43 0 45.5-14.25 55.56-34.87v156.99z m0-183.92c0 30.69-24.93 55.56-55.56 55.56h-87.68c-30.62 0-55.56-24.87-55.56-55.56V677.4c0-9.87 8-17.88 17.88-17.88h163.05c9.87 0 17.87 8 17.87 17.88v14.69z" fill="#1D1D1F" /><path d="M798.42 677.4v14.68c0 30.69-24.93 55.56-55.56 55.56h-87.68c-30.62 0-55.56-24.87-55.56-55.56V677.4c0-9.87 8-17.88 17.88-17.88h163.05c9.87 0.01 17.87 8.01 17.87 17.88z" fill="#603AE8" /><path d="M798.42 719.02v156.99c0 9.87-8 17.87-17.87 17.87H617.49c-9.87 0-17.88-8-17.88-17.87V719.02c10.06 20.63 31.13 34.87 55.56 34.87h87.68c24.44 0.01 45.51-14.24 55.57-34.87z" fill="#603AE8" /><path d="M698.55 374.99c0.19 1.75-1 3.31-2.75 3.5l-16.75 2.12 14.69 8.31c1.19 0.69 1.81 2.06 1.5 3.38-0.25 1.31-1.31 2.31-2.62 2.44l-16.81 2.12 14.68 8.37c1.19 0.69 1.81 2 1.56 3.31-0.31 1.31-1.37 2.31-2.69 2.5l-16.81 2.12 14.68 8.37c1.19 0.63 1.81 2 1.56 3.31-0.31 1.31-1.37 2.31-2.69 2.5l-16.81 2.06 14.68 8.37c1.19 0.69 1.81 2.06 1.56 3.38s-1.37 2.31-2.69 2.5l-16.81 2.06 14.75 8.38c1.13 0.69 1.75 2 1.5 3.31a3.052 3.052 0 0 1-2.69 2.5l-16.81 2.13 14.75 8.37c1.13 0.69 1.75 2 1.5 3.31-0.25 1.32-1.37 2.31-2.69 2.5l-16.81 2.06 14.75 8.44c1.13 0.63 1.75 2 1.5 3.31s-1.31 2.31-2.69 2.5l-16.81 2.06 14.75 8.43c1.19 0.63 1.75 2 1.5 3.31s-1.32 2.31-2.69 2.5l-16.81 2.13 14.75 8.37c1.13 0.62 1.75 2 1.5 3.31s-1.31 2.31-2.69 2.5l-16.81 2.13 14.75 8.44c1.13 0.62 1.75 2 1.5 3.31s-1.31 2.31-2.69 2.5l-26.12 3.31h-0.44c-1.5 0-2.87-1.13-3.06-2.75-0.25-1.68 1-3.25 2.69-3.5l16.88-2.13-14.75-8.44c-1.19-0.62-1.81-2-1.5-3.31a3.124 3.124 0 0 1 2.62-2.5l16.88-2.12-14.75-8.38c-1.19-0.69-1.75-2-1.5-3.31a3.124 3.124 0 0 1 2.62-2.5l16.88-2.12-14.75-8.37c-1.19-0.69-1.81-2-1.5-3.31 0.25-1.31 1.31-2.37 2.69-2.5l16.81-2.12-14.75-8.37c-1.19-0.69-1.81-2-1.5-3.31 0.25-1.31 1.31-2.37 2.69-2.5l16.75-2.12-14.69-8.31c-1.19-0.69-1.81-2-1.56-3.38 0.31-1.31 1.38-2.31 2.69-2.5l16.81-2.06-14.69-8.38c-1.19-0.69-1.81-2-1.56-3.37 0.31-1.32 1.38-2.31 2.69-2.44l16.81-2.12-14.69-8.38c-1.19-0.69-1.81-2-1.56-3.31 0.31-1.31 1.38-2.31 2.69-2.5l16.81-2.13-14.69-8.37c-1.19-0.69-1.81-2-1.56-3.31s1.38-2.31 2.69-2.5l16.81-2.06-14.75-8.38c-1.13-0.69-1.75-2-1.5-3.38 0.25-1.31 1.38-2.31 2.69-2.5l16.81-2.06-14.75-8.37c-1.13-0.69-1.75-2-1.5-3.31s1.31-2.31 2.69-2.5l26.12-3.25c1.7-0.18 3.26 1.01 3.51 2.7z" fill="#1D1D1F" /><path d="M512 415.34c-7.19 0-13 5.81-13 12.94 0 7.19 5.81 13 13 13 7.13 0 12.94-5.81 12.94-13 0-7.13-5.81-12.94-12.94-12.94z m0 19.69c-3.75 0-6.75-3-6.75-6.75 0-3.69 3-6.69 6.75-6.69 3.69 0 6.69 3 6.69 6.69 0 3.75-3 6.75-6.69 6.75z" fill="#1C1B23" /><path d="M518.69 428.28c0 3.75-3 6.75-6.69 6.75-3.75 0-6.75-3-6.75-6.75 0-3.69 3-6.69 6.75-6.69 3.69 0 6.69 3 6.69 6.69z" fill="#F5F5F7" /><path d="M512 503.88c-7.19 0-13 5.81-13 12.94 0 7.19 5.81 13 13 13 7.13 0 12.94-5.81 12.94-13 0-7.13-5.81-12.94-12.94-12.94z m0 19.69c-3.75 0-6.75-3-6.75-6.75 0-3.69 3-6.69 6.75-6.69 3.69 0 6.69 3 6.69 6.69 0 3.75-3 6.75-6.69 6.75z" fill="#1C1B23" /><path d="M518.69 516.82c0 3.75-3 6.75-6.69 6.75-3.75 0-6.75-3-6.75-6.75 0-3.69 3-6.69 6.75-6.69 3.69 0 6.69 3 6.69 6.69z" fill="#F5F5F7" /><path d="M512 592.42c-7.19 0-13 5.81-13 12.94 0 7.19 5.81 13 13 13 7.13 0 12.94-5.81 12.94-13 0-7.13-5.81-12.94-12.94-12.94z m0 19.68c-3.75 0-6.75-3-6.75-6.75 0-3.69 3-6.69 6.75-6.69 3.69 0 6.69 3 6.69 6.69 0 3.75-3 6.75-6.69 6.75z" fill="#1C1B23" /><path d="M518.69 605.35c0 3.75-3 6.75-6.69 6.75-3.75 0-6.75-3-6.75-6.75 0-3.69 3-6.69 6.75-6.69 3.69 0 6.69 3.01 6.69 6.69z" fill="#F5F5F7" /><path d="M512 680.95c-7.19 0-13 5.81-13 12.94 0 7.19 5.81 13 13 13 7.13 0 12.94-5.81 12.94-13 0-7.12-5.81-12.94-12.94-12.94z m0 19.69c-3.75 0-6.75-3-6.75-6.75 0-3.69 3-6.69 6.75-6.69 3.69 0 6.69 3 6.69 6.69 0 3.75-3 6.75-6.69 6.75z" fill="#1C1B23" /><path d="M518.69 693.89c0 3.75-3 6.75-6.69 6.75-3.75 0-6.75-3-6.75-6.75 0-3.69 3-6.69 6.75-6.69 3.69 0 6.69 3 6.69 6.69z" fill="#F5F5F7" /><path d="M512 769.49c-7.19 0-13 5.81-13 12.94 0 7.19 5.81 13 13 13 7.13 0 12.94-5.81 12.94-13 0-7.13-5.81-12.94-12.94-12.94z m0 19.69c-3.75 0-6.75-3-6.75-6.75 0-3.69 3-6.69 6.75-6.69 3.69 0 6.69 3 6.69 6.69 0 3.75-3 6.75-6.69 6.75z" fill="#1C1B23" /><path d="M518.69 782.43c0 3.75-3 6.75-6.69 6.75-3.75 0-6.75-3-6.75-6.75 0-3.69 3-6.69 6.75-6.69 3.69 0 6.69 3 6.69 6.69z" fill="#F5F5F7" /><path d="M512 858.03c-7.19 0-13 5.81-13 12.94 0 7.19 5.81 13 13 13 7.13 0 12.94-5.81 12.94-13 0-7.13-5.81-12.94-12.94-12.94z m0 19.69c-3.75 0-6.75-3-6.75-6.75 0-3.69 3-6.69 6.75-6.69 3.69 0 6.69 3 6.69 6.69 0 3.75-3 6.75-6.69 6.75z" fill="#1C1B23" /><path d="M518.69 870.97c0 3.75-3 6.75-6.69 6.75-3.75 0-6.75-3-6.75-6.75 0-3.69 3-6.69 6.75-6.69 3.69 0 6.69 3 6.69 6.69z" fill="#F5F5F7" /></svg>