<svg version="1.1" xmlns="http://www.w3.org/2000/svg" viewBox="0 0 1024 1024"><path d="M844.55 355.38c0.06-0.85-0.28-1.7-0.96-2.27-0.68-0.63-1.53-0.85-2.38-0.68-35.31 6.59-55.87-5.45-56.2-5.68-131.05-67.45-93.69-259.63-93.3-261.56 0.17-0.79 0-1.59-0.45-2.21a2.926 2.926 0 0 0-2.04-1.19C650.1 77.7 612 64.53 611.61 64.36c-0.4-0.11-0.85-0.17-1.25-0.11-1.25 0-2.38 0.74-2.78 1.93-12.95 40.14-51.21 67.27-95.55 68.07-44.4-0.8-82.66-27.93-95.61-68.07-0.4-1.19-1.53-1.93-2.72-1.93-0.45-0.06-0.85 0-1.31 0.11-0.34 0.17-38.49 13.34-77.61 17.43-0.8 0.11-1.53 0.51-1.99 1.19-0.51 0.62-0.68 1.42-0.51 2.21 0.4 1.93 37.75 194.11-93.39 261.67-0.23 0.11-20.72 12.15-56.03 5.56-0.85-0.17-1.76 0.06-2.44 0.68-0.62 0.57-0.96 1.42-0.91 2.27 0.17 3.35 21.35 334.22-2.72 601.34-0.06 0.8 0.23 1.53 0.74 2.16 0.57 0.57 1.31 0.91 2.1 0.91h664.75c0.79 0 1.59-0.34 2.1-0.91 0.57-0.62 0.8-1.36 0.74-2.16-24.08-267.11-2.9-597.99-2.67-601.33zM665.03 84c6.64 1.19 13.57 2.33 20.61 3.12-4.32 25.26-28.84 200.01 96.57 264.56 0.85 0.51 21.06 12.55 56.43 6.92-0.28 4.43-0.74 12.89-1.36 24.75-37.64 5.22-59.38-7.55-59.78-7.78C647.15 308.48 657.76 139.07 665.03 84zM411.99 70.49c14.14 40.2 52.46 67.45 97.14 69.32 0.29 0.06 5.45 0.06 5.74 0 44.68-1.87 83-29.12 97.14-69.32 1.76 0.57 4.32 1.42 7.72 2.44-0.06 0.57-0.11 1.13-0.17 1.7-14.25 44.85-57.57 75.96-107.53 76.81-49.96-0.85-93.33-31.97-107.53-76.81-0.06-0.57-0.17-1.13-0.23-1.7 3.41-1.02 6.02-1.87 7.72-2.44z m203.7 27.08c-14.25 63.93-55.86 109.46-103.67 110.03-47.8-0.57-89.48-46.1-103.72-110.03 19.81 34.75 57.85 57.74 100.77 59.38 0.28 0.11 5.56 0.11 5.85 0 42.98-1.64 80.96-24.63 100.77-59.38zM398.54 74.63c0.11 0.4 0.23 0.74 0.34 1.14 8.97 77.78 56.32 136.03 111.96 137.45h2.38c55.58-1.42 102.93-59.67 111.9-137.45 0.11-0.4 0.23-0.74 0.34-1.14 3.92 1.08 8.34 2.33 13.28 3.58-7.95 92.31-62.05 161.69-126.72 162.31-64.66-0.63-118.77-70-126.77-162.31 4.94-1.25 9.37-2.5 13.29-3.58zM185.36 358.61c35.42 5.62 55.58-6.41 56.26-6.81 125.58-64.66 101.05-239.41 96.8-264.67 6.98-0.8 13.91-1.93 20.55-3.12 7.32 55.07 17.94 224.48-112.58 291.7-0.23 0.11-21.97 12.89-59.61 7.66-0.63-11.87-1.14-20.33-1.42-24.76z m-2.61 595.49c19.19-216.59 8.97-473.88 4.31-565.06 6.36 0.85 12.32 1.3 17.77 1.3 28.05 0 43.66-9.31 44.34-9.71 133.87-68.92 122.8-242.02 115.42-297.72a437.81 437.81 0 0 0 15.1-3.35c8.46 94.24 64.21 165.15 131.15 166.57h2.38c66.88-1.42 122.63-72.33 131.09-166.57 4.77 1.14 9.82 2.27 15.16 3.35-7.44 55.69-18.45 228.8 115.25 297.6 0.79 0.51 16.46 9.82 44.45 9.82 5.45 0 11.47-0.45 17.77-1.3-4.66 91.17-14.82 348.47 4.31 565.06h-658.5z" fill="#1C1B23" /><path d="M246.39 375.7c-0.23 0.11-21.97 12.89-59.61 7.66-0.63-11.87-1.14-20.33-1.42-24.75 35.42 5.62 55.58-6.41 56.26-6.81 125.58-64.66 101.05-239.41 96.8-264.67 6.98-0.8 13.91-1.93 20.55-3.12 7.32 55.06 17.94 224.47-112.58 291.69zM619.72 72.93c-0.06 0.57-0.11 1.13-0.17 1.7-14.25 44.85-57.57 75.96-107.53 76.81-49.96-0.85-93.33-31.97-107.53-76.81-0.06-0.57-0.17-1.13-0.23-1.7 3.41-1.02 6.02-1.87 7.72-2.44 14.14 40.2 52.46 67.45 97.14 69.32 0.29 0.06 5.45 0.06 5.74 0 44.68-1.87 83-29.12 97.14-69.32 1.76 0.57 4.32 1.42 7.72 2.44z" fill="#F5F5F7" /><path d="M638.74 78.21c-7.95 92.31-62.05 161.69-126.72 162.31-64.66-0.63-118.77-70-126.77-162.31 4.94-1.25 9.37-2.5 13.28-3.58 0.11 0.4 0.23 0.74 0.34 1.14 8.97 77.78 56.32 136.03 111.96 137.45h2.38c55.58-1.42 102.93-59.67 111.9-137.45 0.11-0.4 0.23-0.74 0.34-1.14 3.93 1.08 8.35 2.33 13.29 3.58zM838.64 358.61c-0.28 4.43-0.74 12.89-1.36 24.75-37.64 5.22-59.38-7.55-59.78-7.78C647.15 308.48 657.76 139.07 665.03 84c6.64 1.19 13.57 2.33 20.61 3.12-4.32 25.26-28.84 200.01 96.57 264.56 0.85 0.52 21.06 12.55 56.43 6.93z" fill="#F5F5F7" /><path d="M615.69 97.57c-14.25 63.93-55.86 109.46-103.67 110.03-47.8-0.57-89.48-46.1-103.72-110.03 19.81 34.75 57.85 57.74 100.77 59.38 0.28 0.11 5.56 0.11 5.85 0 42.98-1.64 80.96-24.63 100.77-59.38z" fill="#F5F5F7" /><path d="M841.27 954.1h-658.5c19.19-216.59 8.97-473.88 4.31-565.06 6.36 0.85 12.32 1.3 17.77 1.3 28.05 0 43.66-9.31 44.34-9.71 133.87-68.92 122.8-242.02 115.42-297.72a437.81 437.81 0 0 0 15.1-3.35c8.46 94.24 64.21 165.15 131.14 166.57h2.39c66.88-1.42 122.63-72.33 131.09-166.57 4.77 1.14 9.82 2.27 15.16 3.35-7.44 55.69-18.45 228.8 115.25 297.6 0.8 0.51 16.47 9.82 44.45 9.82 5.45 0 11.47-0.45 17.77-1.3-4.66 91.19-14.82 348.48 4.31 565.07z" fill="#603AE8" /></svg>