<svg class="svg-icon" style="width: 1em;height: 1em;vertical-align: middle;fill: currentColor;overflow: hidden;" viewBox="0 0 1024 1024" version="1.1" xmlns="http://www.w3.org/2000/svg"><path d="M511.33 512.22m-448 0a448 448 0 1 0 896 0 448 448 0 1 0-896 0Z" fill="#FFF000" /><path d="M352.09 368.81c-7.49 3.88-13.03 10.45-15.57 18.49-2.56 8.05-1.82 16.61 2.06 24.09 5.6 10.83 16.66 17.05 28.1 17.05 4.89 0 9.85-1.14 14.48-3.54 7.49-3.88 13.03-10.45 15.57-18.49 2.56-8.05 1.82-16.61-2.06-24.1-8.01-15.45-27.12-21.52-42.58-13.5z m25.45 31.51c-0.92 2.92-2.93 5.3-5.64 6.71-5.62 2.9-12.54 0.7-15.45-4.9a11.403 11.403 0 0 1-0.75-8.74c0.92-2.92 2.93-5.3 5.64-6.71 1.68-0.87 3.48-1.28 5.25-1.28 4.15 0 8.16 2.25 10.2 6.18 1.41 2.72 1.68 5.82 0.75 8.74zM486.13 368.81c-7.49 3.88-13.03 10.45-15.57 18.49-2.56 8.05-1.82 16.61 2.06 24.09 5.6 10.83 16.66 17.05 28.1 17.05 4.89 0 9.85-1.14 14.48-3.54 7.49-3.88 13.03-10.45 15.57-18.49 2.56-8.05 1.82-16.61-2.06-24.1-8.01-15.45-27.11-21.52-42.58-13.5z m25.45 31.51c-0.92 2.92-2.93 5.3-5.64 6.71-5.63 2.9-12.54 0.7-15.45-4.9a11.403 11.403 0 0 1-0.75-8.74c0.92-2.92 2.93-5.3 5.64-6.71 1.68-0.87 3.48-1.28 5.25-1.28 4.15 0 8.16 2.25 10.2 6.18 1.41 2.72 1.68 5.82 0.75 8.74z" fill="#231815" /><path d="M800.04 494.35c-22.62-42.53-102.51-57.8-135.8-62.4l-1.8-0.24c-1.46-42.63-11.47-82.95-31.68-103.16-40.15-40.17-149.11-45.79-233.3-34.02-38.33 5.35-130.29 22.86-156.27 69.57-21.92 39.4-33.97 140.9 0.4 192.16-33.27 35.02-43.12 50.95-33.49 64.7 3.87 5.52 8.78 8.25 16.25 8.25 14.25 0 37.8-9.94 81.16-29.41 38.53 14.11 91.46 22.29 144.17 22.39 4.4 20.92 11.18 38.95 20.06 50.44 45.06 58.33 192.48 59.92 272.22 30.9 26.38 20.31 42.58 32.1 54.95 32.1 4.3 0 8.12-1.42 11.75-4.39 12.71-10.4 7.73-28.41-10.31-65.9 30.44-44.65 20.37-135.88 1.69-170.99z m-329.26-31.44c-22.75 23.79-30.2 79.14-25.62 128.75-48.91-0.35-98.57-7.88-134.52-22.22l-5.95-2.37-5.84 2.63c-14.29 6.42-32.59 14.66-47.6 20.74 5.26-5.94 12.17-13.4 21.29-22.77l10.37-10.68-10.53-10.52c-31.87-31.88-26.17-129.23-4.8-167.68 13.05-23.45 65.66-44.78 134.06-54.33 91.19-12.75 180.51-1.8 207.77 25.46 13.38 13.38 20.88 44.5 22.6 78.75-64.22-4.36-132.49 4.18-161.23 34.24z m296.28 207.17c4.54 9.21 7.97 16.59 10.56 22.48-8-5.84-16.83-12.66-23.94-18.15l-6.95-5.37-8.1 3.38c-72.12 30.09-210.99 25.73-244.99-18.27-5.79-7.49-10.28-19.09-13.49-32.84-2.18-9.34-3.75-19.67-4.73-30.38-3.86-42.54 1.78-91.06 17.18-107.16 18.91-19.77 76.13-29.46 139.44-24.86 9.26 0.67 18.64 1.65 28.06 2.95 0.65 0.09 1.3 0.19 1.95 0.28 57.03 8.14 100.62 26.26 111.32 46.38 17.22 32.38 21.97 117.59-3.69 144.43l-7.3 7.64 4.68 9.49z" fill="#231815" /><path d="M696.41 501.58c-12.6-6.52-28.22-1.59-34.76 11.03v0.01c-6.54 12.63-1.58 28.22 11.03 34.76a25.58 25.58 0 0 0 11.83 2.9c9.33 0 18.36-5.08 22.95-13.93 6.52-12.64 1.57-28.23-11.05-34.77z m-2.37 27.81c-2.71 5.25-9.18 7.29-14.41 4.58s-7.29-9.18-4.57-14.41c2.72-5.23 9.16-7.28 14.41-4.57 5.22 2.71 7.28 9.17 4.57 14.4zM589.01 501.58c-12.6-6.52-28.21-1.59-34.76 11.03v0.01c-6.54 12.63-1.58 28.22 11.04 34.76 3.78 1.96 7.83 2.89 11.82 2.89 9.33 0 18.36-5.08 22.95-13.92 6.53-12.64 1.57-28.23-11.05-34.77z m-2.37 27.81c-2.71 5.23-9.15 7.29-14.41 4.58-5.23-2.71-7.29-9.18-4.57-14.41 2.72-5.23 9.14-7.28 14.41-4.57 5.23 2.71 7.28 9.17 4.57 14.4z" fill="#231815" /></svg>