<svg version="1.1" xmlns="http://www.w3.org/2000/svg" viewBox="0 0 1024 1024"><path d="M953.6 272.59L698.43 125.36l-68.27-23c-5.41-5.66-20.66-15.8-21.34-16.24-0.86-0.62-1.85-0.62-2.77-0.31v-0.06c-27.49 10.33-66.73 16.24-107.69 16.24-32.66 0-63.47-3.63-89.18-10.39-0.25-0.06-0.49-0.12-0.74-0.12-0.98 0-1.97 0.49-2.52 1.29l-6.58 9.16-7.2 3.2-90.22 40.1c-4.68 2.09-12.55 6.09-12.61 6.15L70.64 269.94c-3.2 1.72-5.1 3.94-5.72 6.52-0.8 3.2 0.74 5.66 0.74 5.53 4.37 9.04 107.26 220.91 110.02 226.26 1.41 2.89 3.57 4 5.04 4.43 3.75 0.98 7.32-1.11 7.93-1.54l15.38-11.99c0.25-0.12 0.37-0.25 0.56-0.37l0.06 427.06c1.41 10.02 9.59 12.55 14.08 12.55h585.24c4.98 0 8.18-2.89 10.21-6.64 2.03-3.75 2.83-8.36 2.95-11.81V498.29l24.6 13.22c7.99 4.37 11.32-0.49 11.62-1.05 10.52-21.53 103.01-210.76 105.35-220.91 2.77-12.1-4.73-16.78-5.1-16.96zM580.91 99.46c9.29-2.09 17.96-4.55 25.77-7.38 5.23 3.5 16.17 11.19 19.44 14.94 3.38 3.94 6.89 15.01 7.87 18.51l9.17 74.79-51.91 5.78c-0.98 0.06-1.84 0.62-2.34 1.47-0.49 0.86-0.55 1.91-0.18 2.77l11.62 26.44-92.37 76.51c-1.05 0.92-2.52 1.85-3.38 2.15-0.49-2.28 0.62-5.9 1.41-7.56 3.38-5.84 6.52-11.62 7.56-13.53l0.19-0.43v-0.06c0.06-0.12 0.12-0.25 0.18-0.25l60.46-145.7c0.12-0.24 0.18-0.49 0.25-0.8l6.26-47.65z m-82.54 8.68c27 0 53.26-2.58 76.14-7.26l-5.9 45.08-57.75 138.99L449.6 159c-0.12-0.25-0.25-0.43-0.37-0.62-3.87-4.8-6.46-11.38-10.76-22.32l-0.98-2.46c-3.63-9.16-5.41-23.92-6.15-30.94 20.6 3.57 43.35 5.48 67.03 5.48z m-109.96 14.45c0-0.12 0.24-9.16 6.21-11.87l7.99-3.5c0.49-0.25 0.92-0.56 1.23-1.05l5.84-8.12c4.98 1.23 10.08 2.4 15.38 3.44 0.55 6.21 2.4 23.5 6.7 34.38l0.98 2.46c4.43 11.26 7.13 18.14 11.5 23.62l63.35 130.38-5.17 9.35-71.15-56.27 4.55-31.67c0.12-0.92-0.19-1.84-0.8-2.52-0.62-0.68-1.47-1.05-2.4-0.98l-46.37 2.34 2.16-89.99zM219.16 932.24c-0.31 0-7.32 0.31-8.42-6.83V494.48c0-0.62-0.19-1.23-0.56-1.72-0.49-0.68-1.72-1.41-2.52-1.54-1.97-0.25-4.31 0.74-7.38 3.08l-15.13 11.81c-0.49 0.31-1.84 0.86-2.77 0.62-0.19-0.06-0.74-0.18-1.23-1.23-2.71-5.29-108.92-223.98-110.21-226.57 0 0-0.19-0.43-0.06-0.98 0.19-0.8 1.17-1.72 2.71-2.58L292.23 156.8s7.69-3.94 12.24-5.97l78.97-35.12c-1.11 3.5-1.17 6.52-1.17 6.77l-2.22 93.3c0 0.86 0.31 1.66 0.92 2.28 0.62 0.61 1.48 0.92 2.28 0.86l45.94-2.34-4.24 29.71c-0.19 1.11 0.24 2.21 1.11 2.89l73.62 58.18c-0.92 2.52-1.97 6.7-0.86 10.33-2.89 2.03-5.6 5.78-5.78 11.99-0.31 9.59-14.51 570.97-15.32 602.58H219.16z m733.58-644.03c-1.66 7.2-63.34 134.62-104.61 218.94-0.43 0.12-1.54 0-3.44-1.05l-28.41-15.25c-0.92-0.43-2.58-0.31-3.44 0.31-0.86 0.55-1.84 1.66-1.84 4v424.66c0 0.12-0.56 12.42-7.01 12.42H483.86c0.8-33.27 15.01-592.8 15.32-602.46 0.18-6.95 4.8-7.93 5.35-8.06 0.18 0 0.31-0.12 0.43-0.18 3.08-0.43 6.09-2.71 7.01-3.57l93.42-77.37c1.29-0.86 2.15-2.71 1.29-4.61l-10.64-24.29 50.86-5.66c0.86-0.06 1.6-0.49 2.09-1.11 0.49-0.68 0.74-1.48 0.62-2.28l-9.59-78.29c-0.31-1.05-2.21-7.81-4.86-13.84l60.76 20.42L950.4 277.82c0.18 0.12 4.06 2.76 2.34 10.39z" fill="#1C1B23" /><path d="M574.51 100.88l-5.9 45.08-57.75 138.99L449.6 159c-0.12-0.25-0.25-0.43-0.37-0.62-3.87-4.8-6.46-11.38-10.76-22.32l-0.98-2.46c-3.63-9.16-5.41-23.92-6.15-30.94 20.6 3.57 43.36 5.47 67.04 5.47 26.99 0.01 53.25-2.58 76.13-7.25z" fill="#F5F5F7" /><path d="M588.72 210.35l11.62 26.44-92.37 76.51c-1.05 0.92-2.52 1.85-3.38 2.15-0.49-2.28 0.62-5.9 1.41-7.56 3.38-5.84 6.52-11.62 7.56-13.53l0.19-0.43v-0.06c0.06-0.12 0.12-0.25 0.18-0.25l60.46-145.7c0.12-0.24 0.18-0.49 0.25-0.8l6.27-47.66c9.29-2.09 17.96-4.55 25.77-7.38 5.23 3.5 16.17 11.19 19.44 14.94 3.38 3.94 6.89 15.01 7.87 18.51l9.17 74.79-51.91 5.78c-0.98 0.06-1.84 0.62-2.34 1.47-0.5 0.87-0.56 1.92-0.19 2.78zM507.6 292.33l-5.17 9.35-71.15-56.27 4.55-31.67c0.12-0.92-0.19-1.84-0.8-2.52-0.62-0.68-1.47-1.05-2.4-0.98l-46.37 2.34 2.15-89.97c0-0.12 0.24-9.16 6.21-11.87l7.99-3.5c0.49-0.25 0.92-0.56 1.23-1.05l5.84-8.12c4.98 1.23 10.08 2.4 15.38 3.44 0.55 6.21 2.4 23.5 6.7 34.38l0.98 2.46c4.43 11.26 7.13 18.14 11.5 23.62l63.36 130.36z" fill="#F5F5F7" /><path d="M950.4 277.82L695.91 130.95l-60.76-20.42c2.65 6.03 4.55 12.79 4.86 13.84l9.59 78.29c0.12 0.8-0.12 1.6-0.62 2.28-0.49 0.61-1.23 1.05-2.09 1.11l-50.86 5.66L606.67 236c0.86 1.91 0 3.75-1.29 4.61l-93.42 77.37c-0.92 0.86-3.94 3.14-7.01 3.57-0.12 0.06-0.25 0.18-0.43 0.18-0.56 0.12-5.17 1.11-5.35 8.06-0.31 9.65-14.51 569.18-15.32 602.46h320.11c6.46 0 7.01-12.3 7.01-12.42V495.16c0-2.34 0.98-3.44 1.84-4 0.86-0.62 2.52-0.74 3.44-0.31l28.41 15.25c1.91 1.05 3.01 1.17 3.44 1.05 41.27-84.32 102.95-211.74 104.61-218.94 1.75-7.63-2.13-10.27-2.31-10.39zM507.17 793.5c-7.01 0-12.73-5.72-12.73-12.73 0-7.07 5.72-12.79 12.73-12.79 7.07 0 12.79 5.72 12.79 12.79 0 7-5.72 12.73-12.79 12.73z m1.84-88.56c-7.01 0-12.73-5.72-12.73-12.73 0-7.07 5.72-12.79 12.73-12.79 7.07 0 12.79 5.72 12.79 12.79 0.01 7.01-5.72 12.73-12.79 12.73z m1.91-88.56c-7.07 0-12.79-5.72-12.79-12.79 0-7.01 5.72-12.73 12.79-12.73 7.01 0 12.73 5.72 12.73 12.73 0 7.07-5.72 12.79-12.73 12.79z m1.84-88.56c-7.07 0-12.79-5.72-12.79-12.79 0-7.01 5.72-12.73 12.79-12.73 7.01 0 12.73 5.72 12.73 12.73 0 7.07-5.71 12.79-12.73 12.79z m1.85-88.57c-7.07 0-12.79-5.72-12.79-12.79 0-7.01 5.72-12.79 12.79-12.79 7.01 0 12.73 5.78 12.73 12.79 0 7.08-5.72 12.79-12.73 12.79z m1.84-88.62c-7.07 0-12.79-5.72-12.79-12.73 0-7.07 5.72-12.79 12.79-12.79 7.01 0 12.79 5.72 12.79 12.79 0.01 7.01-5.77 12.73-12.79 12.73zM498.8 317.67c-2.89 2.03-5.6 5.78-5.78 11.99-0.31 9.59-14.51 570.97-15.32 602.58H219.16c-0.31 0-7.32 0.31-8.42-6.83V494.48c0-0.62-0.19-1.23-0.56-1.72-0.49-0.68-1.72-1.41-2.52-1.54-1.97-0.25-4.31 0.74-7.38 3.08l-15.13 11.81c-0.49 0.31-1.84 0.86-2.77 0.62-0.19-0.06-0.74-0.18-1.23-1.23-2.71-5.29-108.92-223.98-110.21-226.57 0 0-0.19-0.43-0.06-0.98 0.19-0.8 1.17-1.72 2.71-2.58L292.23 156.8s7.69-3.94 12.24-5.97l78.97-35.12c-1.11 3.5-1.17 6.52-1.17 6.77l-2.22 93.3c0 0.86 0.31 1.66 0.92 2.28 0.62 0.61 1.48 0.92 2.28 0.86l45.94-2.34-4.24 29.71c-0.19 1.11 0.24 2.21 1.11 2.89l73.62 58.18c-0.94 2.5-1.99 6.68-0.88 10.31z" fill="#603AE8" /><path d="M516.45 325.11c-7.07 0-12.79 5.72-12.79 12.79 0 7.01 5.72 12.73 12.79 12.73 7.01 0 12.79-5.72 12.79-12.73 0.01-7.07-5.77-12.79-12.79-12.79z m0 19.37c-3.63 0-6.64-2.95-6.64-6.58s3.01-6.64 6.64-6.64 6.64 3.01 6.64 6.64c0.01 3.63-3.01 6.58-6.64 6.58zM514.61 413.67c-7.07 0-12.79 5.78-12.79 12.79 0 7.07 5.72 12.79 12.79 12.79 7.01 0 12.73-5.72 12.73-12.79 0-7.01-5.72-12.79-12.73-12.79z m0 19.43c-3.69 0-6.64-3.01-6.64-6.64s2.95-6.64 6.64-6.64c3.63 0 6.58 3.01 6.58 6.64s-2.95 6.64-6.58 6.64zM512.76 502.29c-7.07 0-12.79 5.72-12.79 12.73 0 7.07 5.72 12.79 12.79 12.79 7.01 0 12.73-5.72 12.73-12.79 0-7.01-5.71-12.73-12.73-12.73z m0 19.38c-3.69 0-6.64-2.95-6.64-6.64 0-3.63 2.95-6.58 6.64-6.58 3.63 0 6.58 2.95 6.58 6.58 0 3.68-2.95 6.64-6.58 6.64zM510.92 590.85c-7.07 0-12.79 5.72-12.79 12.73 0 7.07 5.72 12.79 12.79 12.79 7.01 0 12.73-5.72 12.73-12.79 0-7.01-5.72-12.73-12.73-12.73z m0 19.38c-3.69 0-6.64-2.95-6.64-6.64 0-3.63 2.95-6.58 6.64-6.58 3.63 0 6.58 2.95 6.58 6.58 0 3.68-2.95 6.64-6.58 6.64zM509.01 679.41c-7.01 0-12.73 5.72-12.73 12.79 0 7.01 5.72 12.73 12.73 12.73 7.07 0 12.79-5.72 12.79-12.73 0.01-7.07-5.72-12.79-12.79-12.79z m0 19.38c-3.63 0-6.58-2.95-6.58-6.58 0-3.69 2.95-6.64 6.58-6.64 3.69 0 6.64 2.95 6.64 6.64 0.01 3.62-2.95 6.58-6.64 6.58zM507.17 767.97c-7.01 0-12.73 5.72-12.73 12.79 0 7.01 5.72 12.73 12.73 12.73 7.07 0 12.79-5.72 12.79-12.73 0-7.07-5.72-12.79-12.79-12.79z m0 19.38c-3.63 0-6.58-2.95-6.58-6.58 0-3.69 2.95-6.64 6.58-6.64 3.69 0 6.64 2.95 6.64 6.64 0 3.62-2.95 6.58-6.64 6.58z" fill="#1C1B23" /><path d="M516.49 325.11c-7.07 0-12.79 5.72-12.79 12.73 0 7.07 5.72 12.79 12.79 12.79 7.01 0 12.73-5.72 12.73-12.79-0.01-7.01-5.72-12.73-12.73-12.73z m0 19.37c-3.69 0-6.64-2.95-6.64-6.64 0-3.63 2.95-6.58 6.64-6.58 3.63 0 6.58 2.95 6.58 6.58-0.01 3.69-2.96 6.64-6.58 6.64z" fill="#1C1B23" /><path d="M523.06 337.84c0 3.69-2.95 6.64-6.58 6.64-3.69 0-6.64-2.95-6.64-6.64 0-3.63 2.95-6.58 6.64-6.58 3.63 0 6.58 2.95 6.58 6.58z" fill="#F5F5F7" /><path d="M514.61 413.7c-7.07 0-12.79 5.72-12.79 12.73 0 7.07 5.72 12.79 12.79 12.79 7.01 0 12.73-5.72 12.73-12.79 0-7.01-5.72-12.73-12.73-12.73z m0 19.37c-3.69 0-6.64-2.95-6.64-6.64 0-3.63 2.95-6.58 6.64-6.58 3.63 0 6.58 2.95 6.58 6.58 0 3.69-2.95 6.64-6.58 6.64z" fill="#1C1B23" /><path d="M521.19 426.43c0 3.69-2.95 6.64-6.58 6.64-3.69 0-6.64-2.95-6.64-6.64 0-3.63 2.95-6.58 6.64-6.58 3.63 0 6.58 2.95 6.58 6.58z" fill="#F5F5F7" /><path d="M512.76 502.29c-7.07 0-12.79 5.72-12.79 12.73 0 7.07 5.72 12.79 12.79 12.79 7.01 0 12.73-5.72 12.73-12.79 0-7.01-5.71-12.73-12.73-12.73z m0 19.38c-3.69 0-6.64-2.95-6.64-6.64 0-3.63 2.95-6.58 6.64-6.58 3.63 0 6.58 2.95 6.58 6.58 0 3.68-2.95 6.64-6.58 6.64z" fill="#1C1B23" /><path d="M519.34 515.02c0 3.69-2.95 6.64-6.58 6.64-3.69 0-6.64-2.95-6.64-6.64 0-3.63 2.95-6.58 6.64-6.58 3.63 0 6.58 2.96 6.58 6.58z" fill="#F5F5F7" /><path d="M510.92 590.85c-7.07 0-12.79 5.72-12.79 12.73 0 7.07 5.72 12.79 12.79 12.79 7.01 0 12.73-5.72 12.73-12.79 0-7.01-5.72-12.73-12.73-12.73z m0 19.38c-3.69 0-6.64-2.95-6.64-6.64 0-3.63 2.95-6.58 6.64-6.58 3.63 0 6.58 2.95 6.58 6.58 0 3.69-2.95 6.64-6.58 6.64z" fill="#1C1B23" /><path d="M517.5 603.58c0 3.69-2.95 6.64-6.58 6.64-3.69 0-6.64-2.95-6.64-6.64 0-3.63 2.95-6.58 6.64-6.58 3.63 0 6.58 2.96 6.58 6.58z" fill="#F5F5F7" /><path d="M509.07 679.41c-7.07 0-12.79 5.72-12.79 12.73 0 7.07 5.72 12.79 12.79 12.79 7.01 0 12.73-5.72 12.73-12.79 0-7.01-5.71-12.73-12.73-12.73z m0 19.38c-3.69 0-6.64-2.95-6.64-6.64 0-3.63 2.95-6.58 6.64-6.58 3.63 0 6.58 2.95 6.58 6.58 0 3.69-2.95 6.64-6.58 6.64z" fill="#1C1B23" /><path d="M515.65 692.14c0 3.69-2.95 6.64-6.58 6.64-3.69 0-6.64-2.95-6.64-6.64 0-3.63 2.95-6.58 6.64-6.58 3.63 0 6.58 2.96 6.58 6.58z" fill="#F5F5F7" /><path d="M507.23 767.97c-7.07 0-12.79 5.72-12.79 12.73 0 7.07 5.72 12.79 12.79 12.79 7.01 0 12.73-5.72 12.73-12.79 0-7.01-5.72-12.73-12.73-12.73z m0 19.38c-3.69 0-6.64-2.95-6.64-6.64 0-3.63 2.95-6.58 6.64-6.58 3.63 0 6.58 2.95 6.58 6.58 0 3.69-2.95 6.64-6.58 6.64z" fill="#1C1B23" /><path d="M513.81 780.7c0 3.69-2.95 6.64-6.58 6.64-3.69 0-6.64-2.95-6.64-6.64 0-3.63 2.95-6.58 6.64-6.58 3.63 0 6.58 2.96 6.58 6.58z" fill="#F5F5F7" /></svg>